Coordinates
version=1
nRows=5
nColumns=40
inDegrees=yes

Units are S.I. units (second, meters, Newtons, ...)
Angles are in degrees.

endheader
time	pelvis_tilt	pelvis_list	pelvis_rotation	pelvis_tx	pelvis_ty	pelvis_tz	hip_flexion_r	hip_adduction_r	hip_rotation_r	knee_angle_r	knee_angle_r_beta	ankle_angle_r	subtalar_angle_r	mtp_angle_r	hip_flexion_l	hip_adduction_l	hip_rotation_l	knee_angle_l	knee_angle_l_beta	ankle_angle_l	subtalar_angle_l	mtp_angle_l	lumbar_extension	lumbar_bending	lumbar_rotation	arm_flex_r	arm_add_r	arm_rot_r	elbow_flex_r	pro_sup_r	wrist_flex_r	wrist_dev_r	arm_flex_l	arm_add_l	arm_rot_l	elbow_flex_l	pro_sup_l	wrist_flex_l	wrist_dev_l
     14.02000000	     -2.89392026	     -6.06263845	      1.58944400	      1.11139721	      0.93385818	      0.40315976	     24.05799903	     -6.00275166	     -6.67497472	     59.52105839	     59.52105839	      5.41436741	    -12.13184485	     -1.41473444	     15.81084713	     -7.61994737	     -9.24397518	     24.84015080	     24.84015080	     15.05927321	     -5.78765242	      1.55769288	    -10.63918420	      4.82652952	      1.03448444	     10.13674412	    -13.38868888	      2.77514706	     33.20078487	     45.51338756	      0.00000000	      0.00000000	     13.36991933	    -16.40807740	     -1.52223734	     46.29727899	     45.65405682	      0.00000000	      0.00000000
     14.03350000	     -2.86321743	     -6.11747597	      1.30134644	      1.11086191	      0.93480193	      0.40276574	     24.84954239	     -5.86765824	     -6.42064403	     58.18427387	     58.18427387	      5.31224469	    -11.97050482	     -1.36780559	     14.98225857	     -7.59909789	     -9.40495102	     24.14019742	     24.14019742	     15.16159080	     -5.90788023	      1.74377648	    -10.69162285	      4.83400894	      0.84897442	      8.23486861	    -13.38322339	      2.96939987	     32.08528617	     45.53715509	      0.00000000	      0.00000000	     14.56805888	    -16.73996060	     -1.68762097	     46.74742052	     45.70024689	      0.00000000	      0.00000000
     14.04700000	     -2.82453418	     -6.16535638	      1.02203592	      1.11029418	      0.93559971	      0.40240603	     25.54253771	     -5.71718341	     -6.17972247	     56.67115457	     56.67115457	      5.19047478	    -11.79452023	     -1.35115753	     14.19891548	     -7.57396100	     -9.54908539	     23.53219895	     23.53219895	     15.25382466	     -6.06342289	      1.81763904	    -10.79291677	      4.84731010	      0.72576078	      6.25943682	    -13.42451117	      3.13745162	     31.05485708	     45.55907949	      0.00000000	      0.00000000	     15.77137922	    -17.08430936	     -1.84484099	     47.32366133	     45.74918554	      0.00000000	      0.00000000
     14.06050000	     -2.81098216	     -6.23624134	      0.74330284	      1.10968835	      0.93630926	      0.40213102	     26.14323049	     -5.52566160	     -5.99353980	     54.89901457	     54.89901457	      5.03272720	    -11.55672597	     -1.25730774	     13.45494905	     -7.57911262	     -9.70771204	     22.92886244	     22.92886244	     15.33356326	     -6.18665833	      1.83858154	    -10.87305900	      4.89898409	      0.55842861	      4.33719036	    -13.46703263	      3.25203952	     30.17625866	     45.57758954	      0.00000000	      0.00000000	     16.87321592	    -17.45271259	     -2.00158883	     47.94914383	     45.79504286	      0.00000000	      0.00000000
     14.07400000	     -2.81385947	     -6.30765740	      0.45787555	      1.10899528	      0.93686613	      0.40198872	     26.65700815	     -5.30980003	     -5.84864466	     52.87576340	     52.87576340	      4.88560380	    -11.23222600	     -1.15472167	     12.76157750	     -7.59219880	     -9.86796071	     22.36520360	     22.36520360	     15.39538644	     -6.33178828	      1.79830677	    -10.96775537	      4.95958780	      0.46230115	      2.46362521	    -13.51636514	      3.32475245	     29.37866347	     45.59612434	      0.00000000	      0.00000000	     17.93780059	    -17.80522836	     -2.16539624	     48.64962482	     45.84199441	      0.00000000	      0.00000000
